<?xml version="1.0" encoding="UTF-8" standalone="no"?>
<svg
   xmlns:dc="http://purl.org/dc/elements/1.1/"
   xmlns:cc="http://creativecommons.org/ns#"
   xmlns:rdf="http://www.w3.org/1999/02/22-rdf-syntax-ns#"
   xmlns:svg="http://www.w3.org/2000/svg"
   xmlns="http://www.w3.org/2000/svg"
   xmlns:sodipodi="http://sodipodi.sourceforge.net/DTD/sodipodi-0.dtd"
   xmlns:inkscape="http://www.inkscape.org/namespaces/inkscape"
   width="32"
   height="32"
   viewBox="0 0 8.4666662 8.4666669"
   version="1.1"
   id="svg8"
   sodipodi:docname="manifest_icon.svg"
   inkscape:version="1.0.1 (3bc2e813f5, 2020-09-07)"
   inkscape:export-filename="C:\Users\Chris\Documents\game dev in python\threeP.games\GUI\images\manifest_icon.png"
   inkscape:export-xdpi="103.27744"
   inkscape:export-ydpi="103.27744">
  <defs
     id="defs2">
    <clipPath
       clipPathUnits="userSpaceOnUse"
       id="clipPath1496">
      <path
         id="path1498"
         style="fill:#ff0000;fill-opacity:1;fill-rule:nonzero;stroke:none;stroke-width:0.341193"
         d="M 62.445786,17.10858 46.515267,39.844851 c 0.02415,-0.19474 0.04689,-0.389813 0.07154,-0.589801 0.0083,-1.189161 0.0593,-1.300442 -0.15658,-2.358183 -0.04053,-0.198593 -0.142366,-0.341619 -0.187743,-0.535945 -0.04498,-0.192625 -0.0094,-0.456558 -0.08282,-0.622906 -0.01218,-0.02759 -0.153975,0.138316 -0.149299,0.09671 0.02582,-0.229762 0.150931,-0.52208 0.226479,-0.783369 0.05636,-0.502984 0.154141,-1.48534 0.11629,-1.998853 0.04579,-0.05857 0.08995,-0.111882 0.136336,-0.172395 0.922901,-1.177001 2.289081,-2.819743 2.627796,-3.928049 0.687622,-2.24997 -0.525577,-2.29092 -1.995141,-2.102212 -0.076,0.01671 -0.173293,0.03781 -0.257436,0.05581 -0.0088,-0.128717 -0.02398,-0.24966 -0.07615,-0.324659 0.107968,-0.940503 0.16184,-1.168845 -0.468089,-1.75511 -0.173017,-0.161012 -0.439013,-0.213306 -0.662833,-0.314959 0.130049,-1.446241 -0.01816,-2.67027 -0.415656,-3.701876 -0.129197,-1.2527 -0.44665,-2.407978 -1.061781,-3.209219 -0.384945,-0.501411 -1.218348,-0.508253 -1.466548,-1.163848 -1.283721,0.747687 -2.567661,1.495817 -3.851444,2.243738 -0.05052,-0.183138 -0.09749,-0.369635 -0.16877,-0.533167 -0.287293,-0.65911 -0.519609,-0.807712 -1.07435,-1.22748 -0.03552,-0.02688 0.04909,0.07747 0.07356,0.116271 -0.09242,-0.12914 -0.175759,-0.26727 -0.276949,-0.387192 -0.01025,-0.01214 -0.07556,0.06126 -0.08251,0.0458 -0.303558,-0.675577 -0.246554,-1.748599 -0.991372,-1.967589 -0.08822,-0.08229 -0.176477,-0.1646 -0.264724,-0.246924 z M 26.798469,13.554303 c -0.271901,0.27 -0.533786,0.536073 -0.74539,0.770599 -0.454575,0.503883 -0.784191,1.070527 -1.198966,1.598636 -0.414028,0.527204 -0.884605,1.024844 -1.320809,1.541318 -0.478197,0.55312 -0.895225,1.113273 -1.286394,1.676713 l -0.06669,-0.0066 c -0.06876,-0.0069 -0.129161,-0.103847 -0.200028,-0.08814 -0.02361,0.0052 -0.04858,0.02287 -0.07525,0.06069 -0.226883,0.321851 -0.447493,0.644078 -0.665789,0.966296 -0.02243,0.01021 -0.04258,0.01842 -0.06532,0.02891 -0.570451,0.263231 -1.144986,0.535194 -1.71758,0.831313 0.07475,-0.206256 0.14965,-0.412594 0.224391,-0.618844 0.203533,-0.166567 0.783626,-0.552758 0.610345,-0.499768 -1.056811,0.323151 -1.589384,0.963414 -2.611369,1.784618 0.154154,-0.134117 0.288307,-0.270292 0.305226,-0.352172 0.04538,-0.219644 -0.47787,0.267027 -0.716803,0.400587 -0.53428,0.3957 -1.077194,0.702916 -1.602173,1.186456 -0.718565,0.661854 -2.741646,2.807005 -3.00419,3.770069 -0.129908,0.476511 -0.06928,0.828429 -0.0047,1.176573 -0.06086,0.175076 -0.121506,0.345925 -0.182227,0.526512 -0.06283,0.105313 -0.128652,0.211878 -0.193914,0.318102 -0.0044,-0.503753 0.06033,-1.130684 0.230616,-1.552595 -0.710742,0.752685 -0.531679,0.550588 -1.207265,2.295708 -0.238973,0.617293 -0.239979,1.077665 -0.114345,1.434881 -0.353855,1.066776 -0.189002,1.541853 0.255713,2.132482 0.09332,0.123945 0.341697,0.06236 0.512678,0.09363 0.02381,0.0019 0.04741,0.0043 0.07129,0.0062 -0.47715,0.562974 -1.246381,1.469976 -1.319061,1.555663 -1.3708131,1.710966 -2.3929692,3.469584 -3.6293387,5.208931 -1.207465,1.664344 -2.3600014,3.335576 -3.5245805,5.00505 -0.3621641,0.638667 -1.6206562,2.138833 -1.8710416,2.66881 -0.041574,0.08803 -0.077804,0.174024 -0.1169761,0.261119 L -8.2586193,46.756172 15.774901,12.45518 Z m -0.253867,0.874519 c -0.03855,0.120279 -0.0721,0.23125 -0.133674,0.396732 -0.04917,0.132146 0.08046,-0.255307 0.120805,-0.382959 0.0049,-0.0051 0.008,-0.0087 0.01286,-0.01377 z m 0.937385,9.602794 c -0.01391,0.0088 -0.02707,0.01496 -0.04113,0.02424 -0.05855,0.03866 0.0562,0.114195 0.0061,0.129034 -0.337442,0.100137 -0.724604,-0.01045 -1.094747,-0.07904 0.280562,0.02643 0.579888,0.0236 0.931419,-0.06301 0.06575,-0.0037 0.132054,-0.0074 0.198302,-0.01123 z m -1.557673,0.01739 c 0.02045,0.0033 0.04089,0.0064 0.06136,0.0097 -0.0243,-5.19e-4 -0.04719,0.0018 -0.07106,0.0027 0.0034,-0.0041 0.0063,-0.0082 0.0097,-0.01232 z m -9.1972,2.808948 c -0.04833,0.05185 -0.09641,0.103805 -0.145382,0.154666 -0.01952,-0.0024 -0.03831,-0.0053 -0.05801,-0.0076 9.44e-4,-0.0033 0.0014,-0.0062 0.0024,-0.0095 0.06708,-0.0469 0.133967,-0.0933 0.201021,-0.137605 z m 28.449923,3.753307 c 0.01624,-0.0042 -0.01186,0.04342 -0.06142,0.115211 -0.0032,-0.01965 -0.007,-0.03866 -0.0099,-0.05856 0.03084,-0.02716 0.06093,-0.05395 0.07135,-0.05665 z M 12.439515,28.413448 c -0.05277,0.157675 -0.109273,0.322915 -0.154219,0.456681 -0.0024,-0.03805 -0.002,-0.08025 -0.0033,-0.120784 0.05686,-0.120546 0.110902,-0.238499 0.157565,-0.335897 z m 11.309301,1.721006 c -0.01037,0.02836 -0.01782,0.05476 -0.02602,0.08154 -0.0014,-3.96e-4 -0.0035,-9.6e-5 -0.005,-4.99e-4 0.0089,-0.03245 0.01448,-0.04936 0.02278,-0.07921 0.0026,-5.16e-4 0.0056,-0.0013 0.0083,-0.0019 z m 0.144302,0.05513 c -0.01593,0.02039 -0.03297,0.04031 -0.04893,0.06066 -0.0015,-5.41e-4 -0.0034,-8.38e-4 -0.0049,-0.0014 0.03274,-0.03731 0.07372,-0.08491 0.05387,-0.05928 z M 40.773845,44.69795 c -0.02862,0.148682 -0.05961,0.298438 -0.0982,0.452523 -0.03215,0.128371 -0.01767,-0.210268 0.05113,-0.356251 0.01887,-0.04002 0.0295,-0.05943 0.04707,-0.09627 z m -4.284452,2.582284 c 0.08842,0.152241 0.182031,0.299113 0.297528,0.4229 0.07721,0.08275 0.235856,0.06855 0.348898,0.109182 0.875727,0.314734 1.696696,0.872929 3.169195,0.313269 0.200723,-0.07628 0.416545,-0.195123 0.636789,-0.3262 l -2.529511,3.610154 -10.719667,-1.068822 c -0.01187,-0.208151 -0.02157,-0.440854 -0.02286,-0.727635 0.105979,0.01419 0.210101,0.03088 0.305258,0.05968 0.0246,0.0074 -0.0652,0.11007 -0.0494,0.12792 0.11724,0.131733 0.27603,0.218029 0.43309,0.304455 0.553746,0.304696 1.266225,0.348963 2.04189,0.348838 0.561412,-0.288502 1.156665,0.266736 1.614325,0.106934 0.726154,-0.253553 1.512995,-0.643435 2.26933,-0.964944 0.729777,-0.776545 1.504662,-1.515408 2.205157,-2.315777 z M 8.634406,46.503607 c 0.2758231,0.884755 0.9308717,0.754586 1.885269,0.764537 0.461923,-0.08844 0.866822,-0.09433 1.248871,-0.06589 0.0032,0.482679 -0.01049,0.777442 -0.03406,0.899978 -0.155223,-0.230602 -0.06129,0.318542 0,0 0.05448,0.08093 0.15557,0.324946 0.283991,0.675731 L 7.1462637,48.292166 C 7.6220206,47.790619 8.122494,47.195471 8.634406,46.503607 Z m -5.9632808,1.020865 c 0.08087,0.01949 0.1098024,0.141875 0.1048391,0.331946 L 2.2544968,47.804428 C 2.4532507,47.59231 2.5893844,47.50479 2.6711252,47.524476 Z" />
    </clipPath>
  </defs>
  <sodipodi:namedview
     id="base"
     pagecolor="#737373"
     bordercolor="#000000"
     borderopacity="1"
     inkscape:pageopacity="0"
     inkscape:pageshadow="2"
     inkscape:zoom="4.0462221"
     inkscape:cx="14.097281"
     inkscape:cy="15.361031"
     inkscape:document-units="px"
     inkscape:current-layer="layer1"
     inkscape:document-rotation="0"
     showgrid="false"
     units="px"
     inkscape:pagecheckerboard="true"
     inkscape:window-width="1366"
     inkscape:window-height="705"
     inkscape:window-x="-8"
     inkscape:window-y="-8"
     inkscape:window-maximized="1"
     inkscape:snap-nodes="false" />
  <metadata
     id="metadata5">
    <rdf:RDF>
      <cc:Work
         rdf:about="">
        <dc:format>image/svg+xml</dc:format>
        <dc:type
           rdf:resource="http://purl.org/dc/dcmitype/StillImage" />
        <dc:title></dc:title>
      </cc:Work>
    </rdf:RDF>
  </metadata>
  <g
     inkscape:label="Layer 1"
     inkscape:groupmode="layer"
     id="layer1">
    <path
       sodipodi:type="spiral"
       style="fill:none;fill-opacity:1;fill-rule:evenodd;stroke:#552200;stroke-width:5.29167;stroke-miterlimit:4;stroke-dasharray:none;stroke-opacity:1"
       id="path830"
       sodipodi:cx="24.190477"
       sodipodi:cy="33.261906"
       sodipodi:expansion="1"
       sodipodi:revolution="3"
       sodipodi:radius="19.428123"
       sodipodi:argument="-18.202164"
       sodipodi:t0="0"
       d="m 24.190477,33.261906 c 0.776996,0.587485 -0.408575,1.337219 -0.976438,1.291418 -1.538874,-0.124118 -2.044432,-2.002926 -1.606399,-3.244296 0.783539,-2.220518 3.53171,-2.849592 5.512153,-1.921378 2.90638,1.362192 3.675025,5.079934 2.236359,7.78001 -1.917517,3.598777 -6.634889,4.508879 -10.047868,2.551339 -4.294885,-2.463365 -5.347044,-8.193011 -2.866318,-12.315725 3.004491,-4.993159 9.752908,-6.187699 14.583582,-3.181298 5.692782,3.542939 7.029915,11.313909 3.496278,16.851439 -4.079724,6.393296 -12.87565,7.873173 -19.119296,3.811258 C 8.3081022,40.269266 6.6853689,30.446764 11.276292,23.49752 c 5.150321,-7.796003 16.000546,-9.561678 23.65501,-4.441219 8.497906,5.684681 10.406591,17.563469 4.756198,25.922868"
       transform="matrix(-0.0513525,-0.00476578,-0.03598093,0.04779794,6.4398114,0.07666584)" />
    <path
       style="fill:none;fill-opacity:1;stroke:#552200;stroke-width:0.281001;stroke-linecap:butt;stroke-linejoin:miter;stroke-miterlimit:4;stroke-dasharray:none;stroke-opacity:1"
       d="M 2.7690732,1.9240772 2.5227238,7.4056612"
       id="path1404"
       sodipodi:nodetypes="cc" />
    <path
       sodipodi:type="spiral"
       style="fill:none;fill-opacity:1;fill-rule:evenodd;stroke:#552200;stroke-width:3.97075;stroke-miterlimit:4;stroke-dasharray:none;stroke-opacity:1"
       id="path830-8"
       sodipodi:cx="24.190477"
       sodipodi:cy="33.261906"
       sodipodi:expansion="1"
       sodipodi:revolution="3"
       sodipodi:radius="19.428123"
       sodipodi:argument="-18.202164"
       sodipodi:t0="0"
       d="m 24.190477,33.261906 c 0.776996,0.587485 -0.408575,1.337219 -0.976438,1.291418 -1.538874,-0.124118 -2.044432,-2.002926 -1.606399,-3.244296 0.783539,-2.220518 3.53171,-2.849592 5.512153,-1.921378 2.90638,1.362192 3.675025,5.079934 2.236359,7.78001 -1.917517,3.598777 -6.634889,4.508879 -10.047868,2.551339 -4.294885,-2.463365 -5.347044,-8.193011 -2.866318,-12.315725 3.004491,-4.993159 9.752908,-6.187699 14.583582,-3.181298 5.692782,3.542939 7.029915,11.313909 3.496278,16.851439 -4.079724,6.393296 -12.87565,7.873173 -19.119296,3.811258 C 8.3081022,40.269266 6.6853689,30.446764 11.276292,23.49752 c 5.150321,-7.796003 16.000546,-9.561678 23.65501,-4.441219 8.497906,5.684681 10.406591,17.563469 4.756198,25.922868"
       transform="matrix(-0.06019891,-0.00469287,-0.04217931,0.04706679,9.8642164,-0.10479386)"
       clip-path="url(#clipPath1496)" />
    <path
       style="fill:none;fill-opacity:1;stroke:#552200;stroke-width:0.268157;stroke-linecap:butt;stroke-linejoin:miter;stroke-miterlimit:4;stroke-dasharray:none;stroke-opacity:1"
       d="m 7.8376184,0.61953324 c -0.05453,-0.2505321 -3.4903402,0.1287278 -3.4903402,0.1287278"
       id="path1500"
       sodipodi:nodetypes="cc" />
    <path
       style="fill:none;fill-opacity:1;stroke:#552200;stroke-width:0.193279;stroke-linecap:butt;stroke-linejoin:miter;stroke-miterlimit:4;stroke-dasharray:none;stroke-opacity:1"
       d="M 7.7835704,1.5651811 3.7820889,2.2376655"
       id="path13"
       sodipodi:nodetypes="cc" />
    <path
       sodipodi:type="spiral"
       style="fill:none;fill-opacity:1;fill-rule:evenodd;stroke:#552200;stroke-width:5.29167;stroke-miterlimit:4;stroke-dasharray:none;stroke-opacity:1"
       id="path830-1"
       sodipodi:cx="24.190477"
       sodipodi:cy="33.261906"
       sodipodi:expansion="1"
       sodipodi:revolution="3"
       sodipodi:radius="19.428123"
       sodipodi:argument="-18.202164"
       sodipodi:t0="0"
       d="m 24.190477,33.261906 c 0.776996,0.587485 -0.408575,1.337219 -0.976438,1.291418 -1.538874,-0.124118 -2.044432,-2.002926 -1.606399,-3.244296 0.783539,-2.220518 3.53171,-2.849592 5.512153,-1.921378 2.90638,1.362192 3.675025,5.079934 2.236359,7.78001 -1.917517,3.598777 -6.634889,4.508879 -10.047868,2.551339 -4.294885,-2.463365 -5.347044,-8.193011 -2.866318,-12.315725 3.004491,-4.993159 9.752908,-6.187699 14.583582,-3.181298 5.692782,3.542939 7.029915,11.313909 3.496278,16.851439 -4.079724,6.393296 -12.87565,7.873173 -19.119296,3.811258 C 8.3081022,40.269266 6.6853689,30.446764 11.276292,23.49752 c 5.150321,-7.796003 16.000546,-9.561678 23.65501,-4.441219 8.497906,5.684681 10.406591,17.563469 4.756198,25.922868"
       transform="matrix(0.03844071,0.02153646,0.03609361,-0.03541217,-0.64788299,8.0821437)" />
    <path
       style="fill:none;fill-opacity:1;stroke:#552200;stroke-width:0.209812;stroke-linecap:butt;stroke-linejoin:miter;stroke-miterlimit:4;stroke-dasharray:none;stroke-opacity:1"
       d="M 2.6218567,6.6704158 1.4729013,6.8239363"
       id="path13-4"
       sodipodi:nodetypes="cc" />
    <path
       style="fill:none;fill-opacity:1;stroke:#552200;stroke-width:0.237231;stroke-linecap:butt;stroke-linejoin:miter;stroke-miterlimit:4;stroke-dasharray:none;stroke-opacity:1"
       d="M 7.2725914,1.5819372 7.0725554,6.5792387"
       id="path1404-7"
       sodipodi:nodetypes="cc" />
    <path
       style="fill:none;fill-opacity:1;stroke:#552200;stroke-width:0.209812;stroke-linecap:butt;stroke-linejoin:miter;stroke-miterlimit:4;stroke-dasharray:none;stroke-opacity:1"
       d="M 6.7779114,6.9095601 1.6123335,8.1523947"
       id="path13-7"
       sodipodi:nodetypes="cc" />
    <path
       style="fill:none;stroke:#552200;stroke-width:0.216536;stroke-linecap:butt;stroke-linejoin:miter;stroke-miterlimit:4;stroke-dasharray:none;stroke-opacity:1"
       d="m 6.6739844,6.9403333 c -3.76e-4,-0.01319 0.06752,-0.00768 0.07526,-0.011532 0.02609,-0.01299 0.05172,-0.024854 0.08105,-0.034591 0.0067,-0.00222 0.03795,-0.0032 0.04053,-0.00577 0.0013,-0.00136 -0.0018,-0.00491 0,-0.00577 0.01218,-0.00606 0.05012,-0.00477 0.06368,-0.01153 0.0018,-8.586e-4 -0.0013,-0.00441 0,-0.00577 0.01141,-0.011359 0.01331,-8.586e-4 0.02316,-0.00577 0.0084,-0.00419 0.01521,-0.013338 0.02315,-0.017296 0.01632,-0.00813 0.01319,-0.030434 0.02316,-0.040357 0.0013,-0.00136 0.0044,0.00136 0.0058,0 0.003,-0.00298 0.0028,-0.020077 0.0058,-0.023061 0.0013,-0.00136 0.0044,0.00136 0.0058,0 0.0064,-0.00636 0.01216,-0.023642 0.01737,-0.028826 0.0013,-0.00136 0.0044,0.00136 0.0058,0 0.0052,-0.00518 0.0014,-0.054831 0.0058,-0.063418 8.65e-4,-0.00172 0.0044,0.00136 0.0058,0 0.0027,-0.00266 -0.0018,-0.013815 0,-0.017295 0.01336,-0.026614 0.0065,-0.070647 0.01158,-0.080714 0.01317,-0.026226 0.01158,-0.061084 0.01158,-0.092244"
       id="path926" />
  </g>
</svg>
