<?xml version="1.0" encoding="UTF-8" standalone="no"?>
<svg
   xmlns:dc="http://purl.org/dc/elements/1.1/"
   xmlns:cc="http://creativecommons.org/ns#"
   xmlns:rdf="http://www.w3.org/1999/02/22-rdf-syntax-ns#"
   xmlns:svg="http://www.w3.org/2000/svg"
   xmlns="http://www.w3.org/2000/svg"
   xmlns:sodipodi="http://sodipodi.sourceforge.net/DTD/sodipodi-0.dtd"
   xmlns:inkscape="http://www.inkscape.org/namespaces/inkscape"
   width="32"
   height="32"
   viewBox="0 0 8.4666665 8.4666669"
   version="1.1"
   id="svg8"
   inkscape:version="1.0.1 (3bc2e813f5, 2020-09-07)"
   sodipodi:docname="run_interpreter.svg"
   inkscape:export-filename="C:\Users\Chris\Documents\game dev in python\threeP.games\GUI\images\run_interpreter.png"
   inkscape:export-xdpi="96.000008"
   inkscape:export-ydpi="96.000008">
  <defs
     id="defs2" />
  <sodipodi:namedview
     id="base"
     pagecolor="#ffffff"
     bordercolor="#666666"
     borderopacity="1.0"
     inkscape:pageopacity="0.0"
     inkscape:pageshadow="2"
     inkscape:zoom="11.2"
     inkscape:cx="9.028873"
     inkscape:cy="14.523861"
     inkscape:document-units="px"
     inkscape:current-layer="layer1"
     inkscape:document-rotation="0"
     showgrid="false"
     units="px"
     inkscape:pagecheckerboard="true"
     inkscape:window-width="1366"
     inkscape:window-height="705"
     inkscape:window-x="1358"
     inkscape:window-y="-8"
     inkscape:window-maximized="1" />
  <metadata
     id="metadata5">
    <rdf:RDF>
      <cc:Work
         rdf:about="">
        <dc:format>image/svg+xml</dc:format>
        <dc:type
           rdf:resource="http://purl.org/dc/dcmitype/StillImage" />
        <dc:title></dc:title>
      </cc:Work>
    </rdf:RDF>
  </metadata>
  <g
     inkscape:label="Layer 1"
     inkscape:groupmode="layer"
     id="layer1">
    <path
       style="fill:none;stroke:#008000;stroke-width:0.264583px;stroke-linecap:butt;stroke-linejoin:miter;stroke-opacity:1"
       d="M 0.94494047,6.9216888 0.92131696,0.92131696 7.9138763,4.3231027 Z"
       id="path10" />
    <g
       id="g78"
       transform="matrix(0.11310587,0,0,0.11618906,1.1434511,2.0987842)">
      <g
         id="g73">
        <path
           style="fill:none;stroke:#fecc3c;stroke-width:1.69909;stroke-linecap:butt;stroke-linejoin:miter;stroke-miterlimit:4;stroke-dasharray:none;stroke-opacity:1"
           d="m 17.254986,24.050825 v -0.945706 l 10.160431,-0.06884 2.000849,-1.093392 1.165652,-2.172584 0.301895,-2.939632 -0.08452,-2.545652 -0.891964,-2.569511 -1.846762,-1.592298 -3.274463,-0.1466184 1.8e-5,3.5295204 -0.657186,2.002494 -0.503208,0.573776 -2.227514,0.93431 -6.389578,0.03143 -3.373554,0.995224 -0.97477,2.376962 0.0017,6.293302 1.095308,2.032394 2.724914,1.124405 3.358643,0.256875 3.275818,-0.560198 2.224629,-1.015111 0.56272,-1.319562 -0.0015,-3.180486 z"
           id="path927" />
      </g>
      <path
         style="fill:none;stroke:#fecc3c;stroke-width:1.69909;stroke-linecap:butt;stroke-linejoin:miter;stroke-miterlimit:4;stroke-dasharray:none;stroke-opacity:1"
         d="m 18.51985,25.96715 c 0.105764,0.0019 0.58318,-0.01118 0.617322,0.02267 0.01144,0.01134 0.01144,0.034 0.02286,0.04533 0.0099,0.0098 0.0767,0.03558 0.09146,0.04533 0.08475,0.05602 0.131544,0.09921 0.205773,0.136002 0.03151,0.01561 0.03076,0.05316 0.04572,0.068 0.04731,0.04689 -0.0019,-0.07167 0.04572,0.02267 0.0069,0.01369 -0.01057,0.05752 0,0.068 0.0054,0.0054 0.01748,-0.0054 0.02286,0 0.01451,0.01438 -0.0095,0.07179 0,0.09066 0.02055,0.04073 0.03351,0.08752 0.04573,0.136001 0.01075,0.04267 -0.01076,0.09334 0,0.136002 0.0069,0.02756 0.03647,0.06315 0.04572,0.09066 0.01788,0.05317 0,0.146982 0,0.204001 0,0.09252 0.032,0.435223 0,0.49867 -0.01114,0.02209 -0.06681,0.108045 -0.06859,0.113334 -0.0217,0.06456 0.0055,0.130503 -0.04573,0.181334 -0.01499,0.01487 -0.05714,0.03397 -0.06859,0.04533 -0.0054,0.0054 0.0054,0.01733 0,0.02267 -0.0076,0.0076 -0.06098,0.0151 -0.06859,0.02267 -0.01146,0.01136 -0.03074,0.05313 -0.04572,0.068 -0.01078,0.01069 -0.03495,-0.01069 -0.04573,0 -0.0054,0.0054 0.0054,0.01733 0,0.02267 -0.02136,0.02117 -0.09296,0.02416 -0.114319,0.04533 -0.01144,0.01134 -0.01144,0.034 -0.02286,0.04533 -0.01078,0.01069 -0.03495,-0.01069 -0.04573,0 -0.01539,0.01526 -0.01206,0.02865 -0.04573,0.04533 -0.01381,0.0068 -0.05802,-0.01048 -0.06859,0 -0.04731,0.04689 0.07228,-0.0018 -0.02286,0.04533 -0.04878,0.02418 -0.134134,-0.02417 -0.18291,0 -0.06969,0.03455 -0.248946,-0.0025 -0.274365,0.02267 -0.0054,0.0054 0.0054,0.01733 0,0.02267 -0.02608,0.02585 -0.236736,0 -0.274365,0 -0.03112,0 -0.316739,0.0033 -0.320093,0 -0.0054,-0.0054 0.0054,-0.01733 0,-0.02267 -0.0049,-0.0049 -0.121927,-0.03021 -0.137182,-0.04533 -0.0054,-0.0054 0.0054,-0.01732 0,-0.02267 -0.0076,-0.0076 -0.06098,-0.01511 -0.06859,-0.02267 -0.01539,-0.01526 -0.01206,-0.02865 -0.04572,-0.04533 -0.04241,-0.02102 -0.09477,-0.02431 -0.137184,-0.04533 -0.09515,-0.04716 0.02445,0.0015 -0.02286,-0.04533 -0.01146,-0.01136 -0.07647,-0.0078 -0.09146,-0.02267 -0.01642,-0.01628 -0.0504,-0.07264 -0.06859,-0.09066 -0.0054,-0.0054 -0.01946,0.0068 -0.02286,0 -0.0068,-0.01351 0.0068,-0.03182 0,-0.04533 -0.0034,-0.0068 -0.01605,0.0034 -0.02286,0 -0.0071,-0.0035 -0.10908,-0.125611 -0.114319,-0.136001 -0.02574,-0.05102 -0.05027,-0.648332 -0.02286,-0.702671 0.02708,-0.05369 0.04771,-0.119215 0.06859,-0.181334 0.02027,-0.06029 0.08432,-0.310261 0.114318,-0.340002 0.0054,-0.0054 0.01747,0.0054 0.02286,0 0.0051,-0.0051 0.07718,-0.137446 0.09146,-0.158668 0.01035,-0.01538 0.250755,-0.214965 0.274366,-0.226669 0.09515,-0.04716 -0.02445,0.0016 0.02286,-0.04533 0.03231,-0.03203 0.145404,-0.04805 0.205773,-0.068 0.02744,-0.0091 0.06402,0.0091 0.09146,0 0.04265,-0.01409 0.05695,-0.02823 0.09146,-0.04533 0.0042,-0.0021 0.06859,0.0017 0.06859,0 0,-0.0076 -0.03048,0 -0.02286,0 0.03048,0 0.09146,0.03022 0.09146,0 0,-0.0076 -0.03048,0 -0.02286,0 0.03048,0 0.12194,0 0.09146,0 -0.01524,0 -0.06098,0 -0.04572,0 0.03048,0 0.09146,0.03022 0.09146,0 0,-0.0076 -0.02968,-0.0034 -0.02286,0 0.0367,0.0182 0.07621,0.03022 0.114319,0.04533 z"
         id="path985" />
    </g>
    <g
       id="g70"
       transform="matrix(0.11310587,0,0,0.11618906,1.191354,2.0915258)">
      <path
         style="fill:none;stroke:#3676aa;stroke-width:1.69909;stroke-linecap:butt;stroke-linejoin:miter;stroke-miterlimit:4;stroke-dasharray:none;stroke-opacity:1"
         d="m 7.9111989,21.709611 0.107736,-4.178185 0.9275383,-1.868395 1.9794518,-0.988386 7.479965,-0.0571 2.713242,-1.079058 0.91454,-2.323334 -0.0062,-6.5045254 -0.797451,-1.5989488 -3.021127,-1.338029 -3.806028,-0.2619835 -2.092041,0.2607735 -2.8751432,1.2433732 -0.623901,1.4304668 0.00955,3.1654268 6.6475402,2.5e-6 -0.0037,0.9473787 -9.5390288,-0.055005 -2.440219,1.0220811 -1.3507447,2.3149151 -0.3994117,3.590284 0.1360529,1.650931 0.869148,2.738563 2.1830768,1.793962 z"
         id="path925" />
      <path
         style="fill:none;stroke:#3676aa;stroke-width:1.69909;stroke-linecap:butt;stroke-linejoin:miter;stroke-miterlimit:4;stroke-dasharray:none;stroke-opacity:1"
         d="m 13.714237,3.5819042 c 0.105763,0.00195 0.583178,-0.011182 0.617321,0.02267 0.01144,0.011335 0.01144,0.034005 0.02286,0.045331 0.0099,0.00981 0.0767,0.035577 0.09146,0.045331 0.08475,0.056014 0.131545,0.099206 0.205775,0.1360013 0.03151,0.015615 0.03076,0.053163 0.04572,0.068 0.04731,0.046895 -0.0019,-0.071671 0.04572,0.02267 0.0069,0.013687 -0.01057,0.05752 0,0.068 0.0054,0.00533 0.01748,-0.00533 0.02286,0 0.0145,0.01438 -0.0095,0.071798 0,0.090668 0.02055,0.040729 0.03351,0.087519 0.04572,0.1360004 0.01076,0.042666 -0.01075,0.093335 0,0.1360014 0.0069,0.027558 0.03647,0.063153 0.04572,0.090667 0.01788,0.053171 0,0.1469816 0,0.2040011 0,0.092526 0.032,0.4352224 0,0.4986697 -0.01115,0.022095 -0.06682,0.1080452 -0.06859,0.1133344 -0.02171,0.064557 0.0055,0.1305031 -0.04573,0.1813342 -0.01499,0.014862 -0.05714,0.033979 -0.06859,0.045331 -0.0054,0.00533 0.0054,0.017324 0,0.02267 -0.0076,0.00753 -0.06098,0.015107 -0.06859,0.02267 -0.01146,0.01136 -0.03074,0.053138 -0.04572,0.068 -0.01078,0.010683 -0.03495,-0.010683 -0.04572,0 -0.0054,0.00533 0.0054,0.017324 0,0.02267 -0.02136,0.021172 -0.09296,0.024158 -0.11432,0.045331 -0.01144,0.011335 -0.01144,0.034005 -0.02286,0.045331 -0.01078,0.010683 -0.03495,-0.010683 -0.04572,0 -0.01539,0.015259 -0.01206,0.028641 -0.04573,0.045331 -0.01381,0.00685 -0.05802,-0.01048 -0.06859,0 -0.04731,0.046895 0.07228,-0.00186 -0.02286,0.045331 -0.04878,0.024175 -0.134133,-0.024175 -0.18291,0 -0.06969,0.034545 -0.248946,-0.00254 -0.274365,0.02267 -0.0054,0.00533 0.0054,0.017324 0,0.02267 -0.02608,0.02585 -0.236735,0 -0.274365,0 -0.03112,0 -0.316738,0.0033 -0.320094,0 -0.0054,-0.00533 0.0054,-0.017324 0,-0.02267 -0.0049,-0.00491 -0.121925,-0.030207 -0.137181,-0.045331 -0.0054,-0.00533 0.0054,-0.017324 0,-0.02267 -0.0076,-0.00753 -0.06098,-0.015116 -0.06859,-0.02267 -0.01539,-0.015259 -0.01206,-0.028641 -0.04573,-0.045331 -0.04241,-0.02102 -0.09477,-0.024311 -0.137182,-0.045331 -0.09515,-0.047166 0.02445,0.00152 -0.02286,-0.045331 -0.01146,-0.01136 -0.07647,-0.00778 -0.09146,-0.02267 -0.01642,-0.016283 -0.0504,-0.072635 -0.06859,-0.090667 -0.0054,-0.00533 -0.01946,0.00677 -0.02286,0 -0.0068,-0.013517 0.0068,-0.031821 0,-0.045331 -0.0034,-0.00677 -0.01605,0.00338 -0.02286,0 -0.0071,-0.00356 -0.109079,-0.1256113 -0.114318,-0.1360012 -0.02574,-0.051023 -0.05027,-0.6483319 -0.02286,-0.7026708 0.02707,-0.053688 0.04771,-0.119215 0.06859,-0.1813343 0.02027,-0.060294 0.08432,-0.3102606 0.114319,-0.3400024 0.0054,-0.00533 0.01748,0.00533 0.02286,0 0.0051,-0.00508 0.07718,-0.1374452 0.09146,-0.1586673 0.01034,-0.015378 0.250754,-0.2149653 0.274365,-0.2266688 0.09515,-0.047166 -0.02445,0.00161 0.02286,-0.04533 0.03231,-0.032025 0.145404,-0.048055 0.205774,-0.068 0.02744,-0.00907 0.06402,0.00907 0.09145,0 0.04265,-0.014092 0.05695,-0.028235 0.09146,-0.045331 0.0042,-0.00212 0.06859,0.0017 0.06859,0 0,-0.00753 -0.03048,0 -0.02286,0 0.03048,0 0.09146,0.030223 0.09146,0 0,-0.00753 -0.03048,0 -0.02286,0 0.03048,0 0.121941,0 0.09145,0 -0.01524,0 -0.06097,0 -0.04572,0 0.03048,0 0.09146,0.030223 0.09146,0 0,-0.00753 -0.02968,-0.00338 -0.02287,0 0.0367,0.018195 0.07621,0.030223 0.11432,0.045331 z"
         id="path985-0" />
    </g>
  </g>
</svg>
