<?xml version="1.0" encoding="UTF-8" standalone="no"?>
<svg
   xmlns:dc="http://purl.org/dc/elements/1.1/"
   xmlns:cc="http://creativecommons.org/ns#"
   xmlns:rdf="http://www.w3.org/1999/02/22-rdf-syntax-ns#"
   xmlns:svg="http://www.w3.org/2000/svg"
   xmlns="http://www.w3.org/2000/svg"
   xmlns:sodipodi="http://sodipodi.sourceforge.net/DTD/sodipodi-0.dtd"
   xmlns:inkscape="http://www.inkscape.org/namespaces/inkscape"
   width="32"
   height="32"
   viewBox="0 0 8.4666662 8.4666669"
   version="1.1"
   id="svg8"
   sodipodi:docname="save_script.svg"
   inkscape:version="1.0.1 (3bc2e813f5, 2020-09-07)"
   inkscape:export-filename="C:\Users\Chris\Documents\game dev in python\threeP.games\GUI\images\save_script.png"
   inkscape:export-xdpi="96"
   inkscape:export-ydpi="96">
  <defs
     id="defs2">
    <clipPath
       clipPathUnits="userSpaceOnUse"
       id="clipPath964">
      <path
         id="path966"
         style="fill:#ff0000;fill-opacity:1;fill-rule:nonzero;stroke:none;stroke-width:0.264583"
         d="M 38.931474,12.47314 V 57.452307 H 83.91064 V 12.47314 Z m 34.308499,9.665043 c 1.00311,-0.01399 1.945518,1.172611 1.731677,3.266468 -0.05616,0.549903 -0.324128,1.147437 -0.226859,1.71514 0.03692,0.215466 0.0881,0.429136 0.111622,0.646473 0.006,0.823195 -0.02685,1.645152 -0.02016,2.468583 0.0078,0.757852 0.0033,1.515891 0.0026,2.273763 2.64e-4,1.038564 5.29e-4,2.077006 5.29e-4,3.115572 -1.22e-4,0.858316 -1.3e-5,1.71672 0,2.575036 -5e-6,0.812565 0,1.625013 0,2.437577 3e-6,0.809475 0,1.618806 0,2.428275 v 2.294951 2.07636 1.511535 c 0,3.741775 -3.779613,3.741775 -3.779613,0 v -1.511535 -2.07636 -2.294951 -2.428275 c -2e-6,-0.812546 -5e-6,-1.625031 0,-2.437577 -1.6e-5,-0.85844 -1.21e-4,-1.717111 0,-2.575554 8.5e-5,-1.039683 -2.01e-4,-2.078982 -5.29e-4,-3.118671 7.94e-4,-0.746648 0.0051,-1.493549 -0.0026,-2.240174 -0.0057,-0.72858 0.0013,-1.456846 0.03307,-2.184879 0.02524,-0.268972 -0.1138,-0.72082 -0.124542,-0.960149 -0.03991,-0.889752 0.157213,-1.768258 0.339516,-2.63188 h 5.29e-4 c 0.338111,-1.601729 1.154571,-2.338844 1.934766,-2.349728 z" />
    </clipPath>
    <clipPath
       clipPathUnits="userSpaceOnUse"
       id="clipPath1020">
      <path
         id="path1022"
         style="fill:#ff0000;fill-opacity:1;fill-rule:nonzero;stroke:none;stroke-width:0.264583"
         d="M 0.37775472,4.5356404 V 134.55974 H 134.55974 V 4.5356404 Z M 73.239973,22.138183 c 1.00311,-0.01399 1.945518,1.172611 1.731677,3.266468 -0.05616,0.549903 -0.324128,1.147437 -0.226859,1.71514 0.03692,0.215466 0.0881,0.429136 0.111622,0.646473 0.006,0.823195 -0.02683,1.645152 -0.02016,2.468583 0.0078,0.757852 0.0033,1.515891 0.0026,2.273763 2.64e-4,1.038564 5.29e-4,2.077006 5.29e-4,3.115572 -1.22e-4,0.858316 -1.3e-5,1.71672 0,2.575036 -5e-6,0.812565 0,1.625013 0,2.437577 3e-6,0.809475 0,1.618806 0,2.428275 v 2.294951 2.07636 1.511535 c 0,3.741775 -3.779613,3.741775 -3.779613,0 v -1.511535 -2.07636 -2.294951 -2.428275 c -2e-6,-0.812546 -5e-6,-1.625031 0,-2.437577 -1.6e-5,-0.85844 -1.21e-4,-1.717111 0,-2.575554 8.5e-5,-1.039683 -1.8e-4,-2.078982 -5.29e-4,-3.118671 7.94e-4,-0.746648 0.0051,-1.493549 -0.0026,-2.240174 -0.0057,-0.72858 0.0013,-1.456846 0.03307,-2.184879 0.02524,-0.268972 -0.1138,-0.72082 -0.124542,-0.960149 -0.03991,-0.889752 0.157213,-1.768258 0.339516,-2.63188 h 5.29e-4 c 0.338111,-1.601729 1.154571,-2.338844 1.934766,-2.349728 z m 0.342614,60.961652 c 0.624615,0.02593 1.34551,0.373086 2.026232,1.175639 0.785524,0.92611 1.482942,1.941922 1.403533,3.22616 -0.0042,0.06701 -0.0182,0.141279 -0.03411,0.216524 0.497165,0.445966 0.985052,1.003909 0.641821,1.257805 -0.04107,0.03038 -0.08789,0.05362 -0.133326,0.07855 -0.0557,0.127389 -0.156922,0.222618 -0.285253,0.299207 0.263951,0.586412 0.342871,1.247492 0.299723,1.919264 -0.0083,0.180387 -0.01336,0.347305 -0.02326,0.51418 0.0088,0.206095 0.01622,0.412314 0.01963,0.620633 -0.129942,-0.01 -0.1372,0.09485 -0.10542,0.236678 0.0357,0.01045 0.08339,0.01095 0.156061,-0.0098 0.07288,0.337505 0.543859,1.128191 0.218594,1.012344 -0.123198,-0.04388 -0.245727,-0.09679 -0.366387,-0.155546 -0.01799,0.03108 -0.03567,0.06248 -0.05943,0.08785 0.04749,0.0068 0.09696,0.01159 0.141076,0.02223 0.151111,0.03642 0.07221,0.253733 0.02635,0.44545 0.77447,0.484156 0.751258,-0.643234 0.73174,0.489376 -0.02297,0.721233 -0.05689,1.433468 0.09973,2.145607 -0.02863,0.262382 -0.03942,0.527714 -0.08578,0.787548 -0.119639,0.670592 -0.424439,1.282221 -0.772562,1.869654 0.171008,0.877462 0.08593,1.344512 -0.492477,2.440672 -0.0074,0.10491 -0.02767,0.20705 -0.07338,0.30438 -0.343588,0.73156 -0.721416,1.10968 -1.166337,1.36425 -0.379462,0.78738 -1.098195,1.8418 -1.893427,1.50379 -0.6878,-0.29236 -1.154962,-0.92033 -1.566828,-1.58544 -0.444434,0.35045 -0.78673,0.27892 -0.867648,-0.79633 -0.02093,-0.27812 -0.108103,-0.55941 -0.06253,-0.83457 0.14541,-0.87774 0.572384,-1.3751 1.099159,-2.02158 -0.361318,0.67257 0.02058,-0.05067 0.315743,-0.475941 0.06266,-0.09028 0.154313,-0.157009 0.224792,-0.241329 0.26075,-0.311973 1.005885,-1.55661 0.351401,-0.362252 0.120399,-0.180207 0.236797,-0.362931 0.355016,-0.544668 -4.5e-5,-0.211632 4.5e-5,-0.230722 0,-0.794269 1.58e-4,-0.812265 0.0024,-1.624795 -5.29e-4,-2.437061 -5.3e-4,-0.214207 -0.0011,-0.428128 -0.0016,-0.642337 -2.65e-4,-0.211386 -0.205076,-0.579083 -0.0011,-0.634069 0.01439,-0.0039 0.03124,-0.0048 0.04599,-0.0083 -0.02154,-0.04937 -0.03598,-0.10546 -0.04134,-0.170015 -0.144111,-0.01236 -0.07105,-0.225285 0.0093,-0.445453 -0.06876,-0.431922 -0.04776,-0.83607 -0.02066,-1.274858 -0.01532,-0.36463 -0.03216,-0.728919 -0.02945,-1.091922 -0.125677,-0.242697 -0.252841,-0.484851 -0.37724,-0.72812 0.02368,0.1002 0.141748,0.375367 0.0708,0.300757 -0.362236,-0.380881 -0.326401,-0.778756 -0.09663,-1.162203 -0.111352,-0.335235 -0.208264,-0.677762 -0.335896,-1.004591 0.074,-0.242443 0.138827,-0.48771 0.222207,-0.727086 0.0036,-0.01029 0.01029,-0.02968 0.01498,-0.04444 -0.06023,-0.09006 -0.130866,-0.182801 -0.227894,-0.278019 -1.919504,-1.883712 -0.949764,-3.914592 0.646473,-3.848346 z m 0.124024,10.304282 c 0.0011,9e-5 0.0016,0.0011 0.0026,0.0011 0.03504,0.0021 0.07308,7.93e-4 0.110069,5.29e-4 -0.0316,-0.103177 -0.05625,-0.203571 -0.07648,-0.301792 -0.02053,0.05692 -0.03474,0.120878 -0.03824,0.197406 -0.0016,0.03649 -5.29e-4,0.07046 0.0021,0.102835 z m 0.04134,0.170016 c 0.144195,0.330523 0.635365,0.336976 1.236617,0.256315 -0.05767,-0.108677 -0.109341,-0.192127 -0.159162,-0.264067 -0.248349,-0.02875 -0.489011,-0.04597 -0.709002,-0.03669 -0.0593,0.05275 -0.121234,0.110551 -0.192235,0.17725 -0.02143,-0.05293 -0.03504,-0.102177 -0.05323,-0.15348 -0.04134,0.0064 -0.0839,0.01151 -0.122991,0.02066 z m 3.593063,0.0052 c -0.116179,-0.01667 -0.242483,-0.02159 -0.374656,-0.01963 0.05237,0.05895 0.101127,0.109251 0.149347,0.158128 0.08907,-0.03259 0.166785,-0.07601 0.225309,-0.138491 z m -4.103108,-6.23528 c -0.0087,0.05325 -0.01569,0.106535 -0.0052,0.157613 0.100494,0.486174 0.225621,0.247692 0.0052,-0.157613 z m 1.869135,2.379184 c -0.191283,0.02212 -0.378703,0.04877 -0.552936,0.08733 -0.104868,0.195828 -0.197853,0.374414 -0.285772,0.543118 0.09746,0.03891 0.193742,0.07952 0.276985,0.135392 0.0019,0.0013 0.0013,0.0021 0.0026,0.0031 0.210177,-0.276519 0.399145,-0.536056 0.559138,-0.768945 z m -0.846976,0.645954 c -0.01669,0.03207 -0.03478,0.0669 -0.05064,0.09767 0.08345,0.038 0.183568,0.06353 0.299726,0.077 0.01085,-0.01418 0.02029,-0.02778 0.031,-0.04186 -0.03391,0.0024 -0.130233,-0.01786 -0.161229,-0.04444 -0.0281,-0.0241 -0.07534,-0.05709 -0.118856,-0.08837 z m 2.148705,2.41174 c -0.01066,0.0024 -0.02127,0.0042 -0.03204,0.0067 0.165735,0.241001 0.317931,0.445735 0.455784,0.612883 0.174937,0.03207 0.343906,0.05486 0.497129,0.05633 -0.337836,-0.173553 -0.656374,-0.402735 -0.920875,-0.675928 z m -1.925979,0.531233 c -0.02721,0.0019 -0.05489,0.0089 -0.0832,0.01963 0.03321,-0.0069 0.06389,-0.01045 0.09767,-0.0181 -0.0049,1.1e-5 -0.0096,-0.0019 -0.01447,-0.0016 z m 2.395202,7.276556 c -0.0024,0.008 -0.0038,0.0272 -0.0047,0.0625 -7.94e-4,0.0323 0.0021,0.0655 0.0036,0.0982 0.0097,-0.006 0.01781,-0.0139 0.02687,-0.0207 -0.01035,-0.0885 -0.02008,-0.1597 -0.02585,-0.14004 z m -0.574643,0.52865 c -0.0096,0.17418 0.01349,0.15142 -0.105418,0.35347 0.06634,0.0446 0.149934,0.0987 0.211357,0.13953 0.0105,0.007 0.01413,0.0213 0.01913,0.0341 0.0764,-0.19145 0.01767,-0.36502 -0.125058,-0.5271 z m -0.06356,1.34772 c -0.05654,0.0299 -0.112874,0.06 -0.170016,0.0889 -0.01741,0.0873 -0.03906,0.17677 -0.06718,0.27026 0.09031,-0.12716 0.170299,-0.24726 0.237194,-0.35915 z m -0.893485,1.17719 c -0.01288,0.005 -0.02681,0.0102 -0.03979,0.0155 -0.0231,0.0353 -0.07848,0.11513 -0.08578,0.12919 0.04556,-0.0505 0.08263,-0.0958 0.125574,-0.14469 z" />
    </clipPath>
    <clipPath
       clipPathUnits="userSpaceOnUse"
       id="clipPath1030">
      <path
         id="path1032"
         style="fill:#ff0000;fill-opacity:1;fill-rule:nonzero;stroke:none;stroke-width:0.264583"
         d="m 37.041666,71.059746 v 45.356924 h 47.625 V 71.059746 Z m 36.540921,12.040089 c 0.624615,0.02593 1.34551,0.373086 2.026232,1.175639 0.785524,0.92611 1.482942,1.941922 1.403533,3.22616 -0.0042,0.06701 -0.0182,0.141279 -0.03411,0.216524 0.497165,0.445966 0.985052,1.003909 0.641821,1.257805 -0.04107,0.03038 -0.08789,0.05362 -0.133326,0.07855 -0.0557,0.127389 -0.156922,0.222618 -0.285253,0.299207 0.263951,0.586412 0.342871,1.247492 0.299723,1.919264 -0.0083,0.180387 -0.01336,0.347305 -0.02326,0.51418 0.0088,0.206095 0.01622,0.412314 0.01963,0.620633 -0.129942,-0.01 -0.1372,0.09485 -0.10542,0.236678 0.0357,0.01045 0.08339,0.01095 0.156061,-0.0098 0.07288,0.337505 0.543859,1.128191 0.218594,1.012344 -0.123198,-0.04388 -0.245727,-0.09679 -0.366387,-0.155546 -0.01799,0.03108 -0.03567,0.06248 -0.05943,0.08785 0.04749,0.0068 0.09696,0.01159 0.141076,0.02223 0.151111,0.03642 0.07221,0.253733 0.02635,0.44545 0.77447,0.484156 0.751258,-0.643234 0.73174,0.489376 -0.02297,0.721233 -0.05689,1.433468 0.09973,2.145607 -0.02863,0.262382 -0.03942,0.527714 -0.08578,0.787548 -0.119639,0.670592 -0.424439,1.282221 -0.772562,1.869654 0.171008,0.877462 0.08593,1.344512 -0.492477,2.440672 -0.0074,0.10491 -0.02767,0.20705 -0.07338,0.30438 -0.343588,0.73156 -0.721416,1.10968 -1.166337,1.36425 -0.379462,0.78738 -1.098195,1.8418 -1.893427,1.50379 -0.6878,-0.29236 -1.154962,-0.92033 -1.566828,-1.58544 -0.444434,0.35045 -0.78673,0.27892 -0.867648,-0.79633 -0.02093,-0.27812 -0.108103,-0.55941 -0.06253,-0.83457 0.14541,-0.87774 0.572384,-1.3751 1.099159,-2.02158 -0.361318,0.67257 0.02058,-0.05067 0.315743,-0.475941 0.06266,-0.09028 0.154313,-0.157009 0.224792,-0.241329 0.26075,-0.311973 1.005885,-1.55661 0.351401,-0.362252 0.120399,-0.180207 0.236797,-0.362931 0.355016,-0.544668 -4.5e-5,-0.211632 4.5e-5,-0.230722 0,-0.794269 1.58e-4,-0.812265 0.0024,-1.624795 -5.29e-4,-2.437061 -5.3e-4,-0.214207 -0.0011,-0.428128 -0.0016,-0.642337 -2.65e-4,-0.211386 -0.205076,-0.579083 -0.0011,-0.634069 0.01439,-0.0039 0.03124,-0.0048 0.04599,-0.0083 -0.02154,-0.04937 -0.03598,-0.10546 -0.04134,-0.170015 -0.144111,-0.01236 -0.07105,-0.225285 0.0093,-0.445453 -0.06876,-0.431922 -0.04776,-0.83607 -0.02066,-1.274858 -0.01532,-0.36463 -0.03216,-0.728919 -0.02945,-1.091922 -0.125677,-0.242697 -0.252841,-0.484851 -0.37724,-0.72812 0.02368,0.1002 0.141748,0.375367 0.0708,0.300757 -0.362236,-0.380881 -0.326401,-0.778756 -0.09663,-1.162203 -0.111352,-0.335235 -0.208264,-0.677762 -0.335896,-1.004591 0.074,-0.242443 0.138827,-0.48771 0.222207,-0.727086 0.0036,-0.01029 0.01029,-0.02968 0.01498,-0.04444 -0.06023,-0.09006 -0.130866,-0.182801 -0.227894,-0.278019 -1.919504,-1.883712 -0.949764,-3.914592 0.646473,-3.848346 z m 0.124024,10.304282 c 0.0011,9e-5 0.0016,0.0011 0.0026,0.0011 0.03504,0.0021 0.07308,7.93e-4 0.110069,5.29e-4 -0.0316,-0.103177 -0.05625,-0.203571 -0.07648,-0.301792 -0.02053,0.05692 -0.03474,0.120878 -0.03824,0.197406 -0.0016,0.03649 -5.29e-4,0.07046 0.0021,0.102835 z m 0.04134,0.170016 c 0.144195,0.330523 0.635365,0.336976 1.236617,0.256315 -0.05767,-0.108677 -0.109341,-0.192127 -0.159162,-0.264067 -0.248349,-0.02875 -0.489011,-0.04597 -0.709002,-0.03669 -0.0593,0.05275 -0.121234,0.110551 -0.192235,0.17725 -0.02143,-0.05293 -0.03504,-0.102177 -0.05323,-0.15348 -0.04134,0.0064 -0.0839,0.01151 -0.122991,0.02066 z m 3.593063,0.0052 c -0.116179,-0.01667 -0.242483,-0.02159 -0.374656,-0.01963 0.05237,0.05895 0.101127,0.109251 0.149347,0.158128 0.08907,-0.03259 0.166785,-0.07601 0.225309,-0.138491 z m -4.103108,-6.23528 c -0.0087,0.05325 -0.01569,0.106535 -0.0052,0.157613 0.100494,0.486174 0.225621,0.247692 0.0052,-0.157613 z m 1.869135,2.379184 c -0.191283,0.02212 -0.378703,0.04877 -0.552936,0.08733 -0.104868,0.195828 -0.197853,0.374414 -0.285772,0.543118 0.09746,0.03891 0.193742,0.07952 0.276985,0.135392 0.0019,0.0013 0.0013,0.0021 0.0026,0.0031 0.210177,-0.276519 0.399145,-0.536056 0.559138,-0.768945 z m -0.846976,0.645954 c -0.01669,0.03207 -0.03478,0.0669 -0.05064,0.09767 0.08345,0.038 0.183568,0.06353 0.299726,0.077 0.01085,-0.01418 0.02029,-0.02778 0.031,-0.04186 -0.03391,0.0024 -0.130233,-0.01786 -0.161229,-0.04444 -0.0281,-0.0241 -0.07534,-0.05709 -0.118856,-0.08837 z m 2.148705,2.41174 c -0.01066,0.0024 -0.02127,0.0042 -0.03204,0.0067 0.165735,0.241001 0.317931,0.445735 0.455784,0.612883 0.174937,0.03207 0.343906,0.05486 0.497129,0.05633 -0.337836,-0.173553 -0.656374,-0.402735 -0.920875,-0.675928 z m -1.925979,0.531233 c -0.02721,0.0019 -0.05489,0.0089 -0.0832,0.01963 0.03321,-0.0069 0.06389,-0.01045 0.09767,-0.0181 -0.0049,1.1e-5 -0.0096,-0.0019 -0.01447,-0.0016 z m 2.395202,7.276556 c -0.0024,0.008 -0.0038,0.0272 -0.0047,0.0625 -7.94e-4,0.0323 0.0021,0.0655 0.0036,0.0982 0.0097,-0.006 0.01781,-0.0139 0.02687,-0.0207 -0.01035,-0.0885 -0.02008,-0.1597 -0.02585,-0.14004 z m -0.574643,0.52865 c -0.0096,0.17418 0.01349,0.15142 -0.105418,0.35347 0.06634,0.0446 0.149934,0.0987 0.211357,0.13953 0.0105,0.007 0.01413,0.0213 0.01913,0.0341 0.0764,-0.19145 0.01767,-0.36502 -0.125058,-0.5271 z m -0.06356,1.34772 c -0.05654,0.0299 -0.112874,0.06 -0.170016,0.0889 -0.01741,0.0873 -0.03906,0.17677 -0.06718,0.27026 0.09031,-0.12716 0.170299,-0.24726 0.237194,-0.35915 z m -0.893485,1.17719 c -0.01288,0.005 -0.02681,0.0102 -0.03979,0.0155 -0.0231,0.0353 -0.07848,0.11513 -0.08578,0.12919 0.04556,-0.0505 0.08263,-0.0958 0.125574,-0.14469 z" />
    </clipPath>
  </defs>
  <sodipodi:namedview
     id="base"
     pagecolor="#737373"
     bordercolor="#000000"
     borderopacity="1"
     inkscape:pageopacity="0"
     inkscape:pageshadow="2"
     inkscape:zoom="11.2"
     inkscape:cx="18.750003"
     inkscape:cy="20.178574"
     inkscape:document-units="px"
     inkscape:current-layer="layer1"
     inkscape:document-rotation="0"
     showgrid="false"
     units="px"
     inkscape:pagecheckerboard="true"
     inkscape:window-width="1366"
     inkscape:window-height="705"
     inkscape:window-x="-8"
     inkscape:window-y="-8"
     inkscape:window-maximized="1"
     inkscape:snap-nodes="true" />
  <metadata
     id="metadata5">
    <rdf:RDF>
      <cc:Work
         rdf:about="">
        <dc:format>image/svg+xml</dc:format>
        <dc:type
           rdf:resource="http://purl.org/dc/dcmitype/StillImage" />
        <dc:title></dc:title>
      </cc:Work>
    </rdf:RDF>
  </metadata>
  <g
     inkscape:label="Layer 1"
     inkscape:groupmode="layer"
     id="layer1">
    <path
       style="fill:none;stroke:#351dff;stroke-width:10.5833;stroke-linecap:butt;stroke-linejoin:round;stroke-miterlimit:4;stroke-dasharray:none;stroke-opacity:0.882353"
       d="M 5.6696429,9.8273811 V 129.26785 H 129.26785 L 129.09118,58.264755 103.70058,9.8889724 Z"
       id="path938"
       clip-path="url(#clipPath1020)"
       transform="matrix(0.05678472,0,0,0.05793615,0.43757482,0.20170466)" />
    <ellipse
       style="opacity:1;fill:#351dff;fill-opacity:0.882353;stroke:none;stroke-width:11.6234;stroke-linejoin:round;stroke-miterlimit:4;stroke-dasharray:none;stroke-opacity:0.882353"
       id="path942"
       cx="60.854164"
       cy="93.738091"
       rx="23.8125"
       ry="22.67857"
       clip-path="url(#clipPath1030)"
       transform="matrix(0.05678472,0,0,0.05793615,0.43757482,0.20170466)" />
    <rect
       style="opacity:1;fill:#351dff;fill-opacity:0.882353;stroke:none;stroke-width:11.9717;stroke-linejoin:round;stroke-miterlimit:4;stroke-dasharray:none;stroke-opacity:0.882353"
       id="rect944"
       width="44.979168"
       height="44.979168"
       x="38.931545"
       y="12.473213"
       clip-path="url(#clipPath964)"
       transform="matrix(0.05678472,0,0,0.05793615,0.43757482,0.20170466)" />
  </g>
</svg>
