<?xml version="1.0" encoding="UTF-8" standalone="no"?>
<svg
   xmlns:dc="http://purl.org/dc/elements/1.1/"
   xmlns:cc="http://creativecommons.org/ns#"
   xmlns:rdf="http://www.w3.org/1999/02/22-rdf-syntax-ns#"
   xmlns:svg="http://www.w3.org/2000/svg"
   xmlns="http://www.w3.org/2000/svg"
   xmlns:sodipodi="http://sodipodi.sourceforge.net/DTD/sodipodi-0.dtd"
   xmlns:inkscape="http://www.inkscape.org/namespaces/inkscape"
   width="128"
   height="128"
   viewBox="0 0 33.866666 33.866668"
   version="1.1"
   id="svg937"
   inkscape:version="1.0.1 (3bc2e813f5, 2020-09-07)"
   sodipodi:docname="threeP_logo.svg">
  <defs
     id="defs931" />
  <sodipodi:namedview
     id="base"
     pagecolor="#ffffff"
     bordercolor="#666666"
     borderopacity="1.0"
     inkscape:pageopacity="0.0"
     inkscape:pageshadow="2"
     inkscape:zoom="1.6536697"
     inkscape:cx="73.312067"
     inkscape:cy="61.012483"
     inkscape:document-units="px"
     inkscape:current-layer="g917"
     inkscape:document-rotation="0"
     showgrid="false"
     units="px"
     inkscape:pagecheckerboard="true"
     inkscape:window-width="1366"
     inkscape:window-height="705"
     inkscape:window-x="-8"
     inkscape:window-y="-8"
     inkscape:window-maximized="1" />
  <metadata
     id="metadata934">
    <rdf:RDF>
      <cc:Work
         rdf:about="">
        <dc:format>image/svg+xml</dc:format>
        <dc:type
           rdf:resource="http://purl.org/dc/dcmitype/StillImage" />
        <dc:title></dc:title>
      </cc:Work>
    </rdf:RDF>
  </metadata>
  <g
     inkscape:label="Layer 1"
     inkscape:groupmode="layer"
     id="layer1">
    <g
       id="g917"
       transform="matrix(0,0.46720745,-0.62226693,0,107.77505,-41.301845)"
       inkscape:export-xdpi="96"
       inkscape:export-ydpi="96">
      <path
         style="fill:#000080;fill-opacity:1;stroke:none;stroke-width:0.264583px;stroke-linecap:butt;stroke-linejoin:miter;stroke-opacity:1"
         d="m 88.498907,158.50275 37.419643,-39.68749 18.61533,13.51264 4.53571,10.11086 -2.83161,7.04063 -12.13171,3.44922 -15.15949,-10.84216 -7.84988,23.3356 z"
         id="path854-7"
         sodipodi:nodetypes="ccccccccc" />
      <path
         style="fill:#ffff00;stroke:none;stroke-width:0.264583px;stroke-linecap:butt;stroke-linejoin:miter;stroke-opacity:1"
         d="m 124.66572,151.50584 0.33641,1.34564 10.42866,5.04612 1.94011,2.69392 -2.27652,4.03425 -9.08303,-1.00922 -8.74661,-3.7005 0.31258,-6.95283 5.06418,-8.37263 4.52044,-2.64049 3.89554,0.1363 3.67761,2.29326 1.90318,0.0617 2.49301,-2.35491 -1.23007,-2.96653 -5.13119,-1.10351 -8.83862,-0.0705 -4.98462,4.1405 -4.37331,6.05536 -2.30271,8.09643 -1.62276,7.62518 0.89779,3.11726 3.36409,2.69127 5.00616,2.54909 13.68611,1.01892 9.22963,-1.54956 3.42222,-7.35564 1.15288,-6.12114 -2.22024,-4.68928 -1.00923,-1.00922 z"
         id="path858-4" />
      <path
         style="fill:#00ff00;stroke:none;stroke-width:0.264583px;stroke-linecap:butt;stroke-linejoin:miter;stroke-opacity:1"
         d="m 125.91855,118.81526 34.94885,8.77948 0.11894,17.365 -4.75753,5.94692 4.40071,3.80602 -0.35681,12.60747 -17.44093,4.37025 3.42222,-7.35564 1.15288,-6.12114 -2.22024,-4.68928 -1.00923,-1.00922 -7.29042,-0.37711 9.35099,-2.65862 2.83161,-7.04063 -4.53571,-10.11086 z"
         id="path860-4" />
    </g>
  </g>
</svg>
